<?xml version="1.0" encoding="UTF-8"?><svg id="Layer_2" xmlns="http://www.w3.org/2000/svg" viewBox="0 0 463.69 436.86"><defs><style>.cls-1{fill:#fff;}.cls-2{fill:#fefefe;}.cls-3{fill:#6ac8f1;}.cls-4{fill:#afcc45;}.cls-5{fill:#e1e155;}.cls-6{fill:#13162a;}.cls-7{fill:#13152a;stroke:#fff;stroke-miterlimit:10;stroke-width:4px;}</style></defs><g id="Layer_1-2"><circle class="cls-1" cx="288.43" cy="158.67" r="130.05"/><path class="cls-4" d="M391.37,264.19c-27.09-9.48-54.76-13.68-82.73-14.67,.58,.56,1.15,1.12,1.73,1.67-.57-.56-1.15-1.12-1.73-1.67-54.62-1.93-110.38,8.4-165.27,15.67-14.75,1.79-29.49,2.37-44.15,1.58,18.61,91.01,89.45,158.74,173.99,158.74,76.14,0,141.15-54.93,166.92-132.32-15.05-11.87-30.88-22.49-48.77-28.99Z"/><path class="cls-5" d="M105.99,146.1c-7.46,22.72-11.56,47.36-11.56,73.1,0,16.37,1.66,32.3,4.79,47.57,14.66,.79,29.4,.21,44.15-1.58,54.89-7.27,110.66-17.61,165.27-15.67-34.46-33.44-70-66.7-113.27-89.33-28.07-14.4-58.73-16.36-89.37-14.09Z"/><path class="cls-3" d="M251.37,113.19c-21,2-44,2-63-9,27,3,47-23,71-31,18-6,36-2,54,0,4,0,8-1,12-3,14.24-8.9,27.42-19.91,42.05-26.35-27.36-19.61-59.63-30.95-94.21-30.95-76.43,0-141.65,55.35-167.22,133.21,30.64-2.27,61.3-.31,89.37,14.09,43.28,22.62,78.82,55.89,113.27,89.33,27.97,.99,55.63,5.19,82.73,14.67,17.89,6.51,33.72,17.13,48.77,28.99,7.65-22.97,11.85-47.91,11.85-73.99s-4.62-53.44-12.99-77.32c-37.29-5-73.95-20.79-109.63-32.69-24-8-52,2-78,4Z"/><path class="cls-2" d="M340.27,33.55c-6.37,.34-12.45,2.69-23.21,15.08-3.07,2.95-6.47,5.64-9.94,7.7-16.11,8.13-29.6,15.73-46.85,28.43-11.66,8.72-25.53,18.39-41.36,20.17-15.6,2.22-33.17-3.44-46.87-15.38,11.62,18.23,40.66,23.94,65.61,22.46,15.61-.72,31.87-6.34,46.82-12.69,15.11-6.01,28.92-12.76,43.23-8.02,42.83,14.28,68.73,79.94,120.31,100.11-2.12-21.57-9.09-38.2-17.95-57.42-8.91-18.67-19.7-39.95-30.57-58.11-10.91-18.17-21.9-33.24-32-39.64-10.12-6.96-19.35-5.24-27.23-2.69Z"/><path class="cls-1" d="M463.65,220c.84,106.73-76.71,216.52-190.07,216.85-113.53-.06-190.82-110.15-190.07-216.85C81.34,112.02,158.61,.53,273.58,0c115.13,.27,192.15,112.04,190.07,220h0Zm-11.85,0c.97-100.01-71.8-204.84-178.22-205-106.58-.1-179.1,105.03-178.22,205-.93,75.55,36.71,154.39,105.3,190.01,33.61,17.67,73.61,22.9,110.48,13.52,88.91-21.87,142.24-115.8,140.66-203.53h0Z"/><path class="cls-6" d="M457.91,219.2c.8,103.7-74.57,210.34-184.7,210.66-110.29-.05-185.41-106.99-184.7-210.66C86.38,114.25,161.48,5.91,273.21,5.39c111.9,.26,186.74,108.88,184.7,213.81h0Zm-11.85,0c.92-96.98-69.65-198.64-172.85-198.81-103.35-.11-173.68,101.86-172.85,198.81-.91,73.29,35.58,149.79,102.12,184.35,32.6,17.14,71.4,22.22,107.17,13.12,86.26-21.22,137.96-112.37,136.41-197.47h0Z"/><path class="cls-7" d="M457.02,10.02c-30.84-4.68-70.64,15.29-75.58,17.86-.34,.18-.72,.25-1.1,.22-23.45-1.91-45.08,17.1-48.41,20.28-.25,.23-.81,.84-1.44,1.58-6.58,7.62-26.35,82.74-32.93,95.45-5.24,10.11-22.57,34.95-25.83,38.05-.23,.22-.52,.35-.85,.42-31.91,6.12-208.68,179.85-230.16,201.06-.29,.29,.04,.77,.41,.6,4.89-2.28,11.5-2.54,14.71-2.52,1.02,0,1.81,.85,1.6,1.75,0,0,0,.01,0,.02-4.65,19.87-44.73,35.75-55.18,39.57-.41,.15-.27,.76,.16,.72,48.97-3.98,142.29-66.8,149.23-71.51,.27-.18,.6-.28,.94-.28,26.09-.15,46.13-11.39,51.29-14.58,.76-.47,1.73-.43,2.44,.11,12.55,9.74,36.81,6.04,42.16,5.08,.76-.14,1.55,.21,1.83,.86,2.08,4.78-7.41,15.54-9.36,20.34-1.9,4.69,5.5,14.51,6.95,16.37,.16,.2,.37,.36,.62,.46,18.07,7.52,32.15,30.74,38.02,42.04,.07,.14,.23,.21,.38,.19,2.97-.48,5.97-.91,8.98-1.33,.33-.04,.44-.45,.18-.65-12.51-9.69-24.03-32.32-26.4-36.99-.27-.53-.24-1.16,.07-1.67,24.51-39.87,59.92-64.88,61.21-65.78,.03-.02,.05-.03,.07-.06,2.14-1.77,98.21-81.62,73.51-143.8-24.19-60.9-.88-112.46,.62-115.66l.17-.29c12.82-17.68,42.94-38.78,52.46-45.22,1.17-.79,.69-2.43-.75-2.65Z"/><path class="cls-6" d="M273.08,421.16c32.82,.64,65.28-11.45,91.42-31,31.73-23.7,54.74-57.67,68.61-94.5,5.24-14.05,9.18-28.47,12.16-43.21,0,0,8.6,1.26,8.6,1.26-4.55,45.46-26.12,88.88-58.84,120.66-13.21,12.92-28.27,23.94-44.46,32.8-13.73,7.39-28.4,13.18-43.5,17.07-11.01,2.84-22.3,4.66-33.72,5.6l-.27-8.69h0Z"/></g></svg>